<svg xmlns="http://www.w3.org/2000/svg" viewBox="0 0 361.8 484.5" enable-background="new 0 0 361.8 484.5"><path d="M358.3 100.5l-97.2-97c-3.4-3.3-8.5-4.5-13-2.6-2.5 1.1-4.6 2.9-5.8 5.2H11.9c-3.1 0-6.2 1.2-8.4 3.3C1.3 11.6 0 14.7 0 18v454.6c0 3.1 1.3 6.2 3.5 8.3 2.2 2.1 5.3 3.6 8.4 3.6h331.2c6.6 0 11.9-5.5 11.9-11.9v-353c2.6-1.2 4.8-3.4 5.9-6.2 1.9-4.4.8-9.6-2.6-12.9zm-93.6-59.9l56.4 56.3h-56.4V40.6zM23.8 29.9h217.1v78.9c0 3.1 1.3 6.2 3.5 8.6 2.2 2.1 5.3 3.3 8.4 3.3h78.4v340.1H23.8V29.9z"/></svg>