<?xml version="1.0" encoding="UTF-8"?>
<svg width="16px" height="18px" viewBox="0 0 16 18" version="1.1" xmlns="http://www.w3.org/2000/svg" xmlns:xlink="http://www.w3.org/1999/xlink">
    <!-- Generator: Sketch 46.2 (44496) - http://www.bohemiancoding.com/sketch -->
    <title>ic_border_color_24px</title>
    <desc>Created with Sketch.</desc>
    <defs></defs>
    <g id="main" stroke="none" stroke-width="1" fill="none" fill-rule="evenodd">
        <g id="Popups" transform="translate(-437.000000, -1659.000000)">
            <g id="ic_border_color_24px" transform="translate(432.000000, 1654.000000)">
                <polygon id="Shape" points="0 0 24 0 24 24 0 24"></polygon>
                <rect id="Rectangle-3" fill="#31A3B7" x="5" y="5" width="14" height="2"></rect>
                <rect id="Rectangle-4" fill="#31A3B7" x="5" y="9" width="10" height="1"></rect>
                <rect id="Rectangle-5" fill="#31A3B7" x="5" y="12" width="8" height="1"></rect>
                <rect id="Rectangle-6" fill="#31A3B7" x="5" y="15" width="5" height="1"></rect>
                <path d="M18.706477,15.943244 L16.059256,13.296023 L9,20.355279 L9,23.0025 L11.647221,23.0025 L18.706477,15.943244 L18.706477,15.943244 Z M20.7960168,13.8537042 C21.0713277,13.5783933 21.0713277,13.1336601 20.7960168,12.8583491 L19.1441509,11.2064832 C18.8688399,10.9311723 18.4241067,10.9311723 18.1487958,11.2064832 L16.7651816,12.5900974 L19.4124026,15.2373184 L20.7960168,13.8537042 L20.7960168,13.8537042 Z" id="Shape" fill="#31A3B7"></path>
            </g>
        </g>
    </g>
</svg>