<?xml version="1.0" encoding="UTF-8"?>
<svg width="30px" height="30px" viewBox="0 0 30 30" version="1.1" xmlns="http://www.w3.org/2000/svg" xmlns:xlink="http://www.w3.org/1999/xlink">
    <!-- Generator: Sketch 41.2 (35397) - http://www.bohemiancoding.com/sketch -->
    <title>ic_inbox_24px</title>
    <desc>Created with Sketch.</desc>
    <defs/>
    <g id="Symbols" stroke="none" stroke-width="1" fill="none" fill-rule="evenodd">
        <g id="ic_inbox_24px">
            <g id="Shape">
                <polygon points="0 0 30 0 30 30 0 30"/>
                <path d="M24.4444444,4 L6.54277778,4 C5.12444444,4 4.01277778,5.13722222 4.01277778,6.55555556 L4,24.4444444 C4,25.85 5.12444444,27 6.54277778,27 L24.4444444,27 C25.85,27 27,25.85 27,24.4444444 L27,6.55555556 C27,5.13722222 25.85,4 24.4444444,4 L24.4444444,4 Z M5.25529803,19.3333333 C4.83723797,19.3333333 4.49833333,18.993037 4.49833333,18.5666667 L4.49833333,17.8 L26.4888889,17.8 L26.4888889,18.5666667 C26.4888889,18.990085 26.1434698,19.3333333 25.7319242,19.3333333 L5.25529803,19.3333333 Z M13,21.9982658 C13,21.4469388 13.453577,21 14.0097911,21 L17.10132,21 C17.6590122,21 18.1111111,21.4537285 18.1111111,21.9982658 L18.1111111,22.0461786 C18.1111111,22.5975056 17.6575341,23.0444444 17.10132,23.0444444 L14.0097911,23.0444444 C13.4520989,23.0444444 13,22.590716 13,22.0461786 L13,21.9982658 Z" fill="#3DCCC6"/>
            </g>
        </g>
    </g>
</svg>