<svg id="Layer_1" data-name="Layer 1" xmlns="http://www.w3.org/2000/svg" viewBox="0 0 22 22"><defs><style>.cls-1{fill:#496194;}.cls-2{fill:#fff;}</style></defs><title>ico_fb</title><path class="cls-1" d="M22,17.2A4.74,4.74,0,0,1,17.2,22H4.8A4.8,4.8,0,0,1,0,17.2V4.8A4.8,4.8,0,0,1,4.8,0H17.2A4.8,4.8,0,0,1,22,4.8V17.2h0Z"/><path class="cls-2" d="M15,3.31A11.62,11.62,0,0,0,12.48,3C9.77,3,8.7,4.27,8.7,6.53V8.19H7v2.68H8.7V19H12V10.86H14.4l0.23-2.68H12V6.9c0-.73.07-1.18,1.12-1.18a8.76,8.76,0,0,1,1.47.16Z"/></svg>