<?xml version="1.0" encoding="UTF-8"?>
<!-- Generator: Adobe Illustrator 19.2.1, SVG Export Plug-In . SVG Version: 6.00 Build 0)  -->
<svg version="1.1" id="Layer_1" xmlns="http://www.w3.org/2000/svg" xmlns:xlink="http://www.w3.org/1999/xlink" x="0px" y="0px" viewBox="0 0 22 22" style="enable-background:new 0 0 22 22;" xml:space="preserve">
<style type="text/css">
	.st0{fill:#6996C7;}
	.st1{fill:#FFFFFF;}
</style>
<g>
	<path class="st0" d="M22,17.2c0,2.7-2.1,4.8-4.8,4.8H4.8C2.1,22,0,19.8,0,17.2V4.8C0,2.2,2.1,0,4.8,0h12.4C19.9,0,22,2.2,22,4.8   L22,17.2L22,17.2z"/>
</g>
<path class="st1" d="M10.9,15.6h0.9c0,0,0.3,0,0.4-0.2c0.1-0.1,0.1-0.4,0.1-0.4s0-1.2,0.6-1.4c0.6-0.2,1.3,1.2,2.1,1.7  c0.6,0.4,1,0.3,1,0.3l2.1,0c0,0,1.1-0.1,0.6-0.9c0-0.1-0.3-0.6-1.5-1.7c-1.3-1.2-1.1-1,0.4-3c0.9-1.2,1.3-2,1.2-2.3  c-0.1-0.3-0.8-0.2-0.8-0.2l-2.3,0c0,0-0.2,0-0.3,0.1c-0.1,0.1-0.2,0.2-0.2,0.2s-0.4,0.9-0.9,1.8c-1,1.7-1.4,1.8-1.6,1.7  c-0.4-0.2-0.3-1-0.3-1.5c0-1.7,0.3-2.3-0.5-2.5c-0.3-0.1-0.4-0.1-1.1-0.1c-0.8,0-1.5,0-1.9,0.2C8.6,7.4,8.4,7.7,8.5,7.7  C8.7,7.7,9,7.8,9.2,8c0.2,0.3,0.2,1,0.2,1s0.1,1.9-0.3,2.2c-0.3,0.2-0.7-0.2-1.7-1.7C7,8.7,6.6,7.8,6.6,7.8S6.6,7.7,6.5,7.6  C6.3,7.5,6.1,7.4,6.1,7.4l-2.2,0c0,0-0.3,0-0.5,0.1C3.3,7.7,3.4,8,3.4,8s1.7,3.9,3.7,5.9C8.9,15.7,10.9,15.6,10.9,15.6z"/>
</svg>