<?xml version="1.0" encoding="UTF-8"?>
<svg width="48px" height="48px" viewBox="0 0 48 48" version="1.1" xmlns="http://www.w3.org/2000/svg" xmlns:xlink="http://www.w3.org/1999/xlink">
    <!-- Generator: Sketch 46.2 (44496) - http://www.bohemiancoding.com/sketch -->
    <title>insta</title>
    <desc>Created with Sketch.</desc>
    <defs>
        <polygon id="path-1" points="25.8550229 25.8561604 0 25.8561604 0 8.12500002e-05 25.8550229 8.12500002e-05"></polygon>
    </defs>
    <g id="main" stroke="none" stroke-width="1" fill="none" fill-rule="evenodd">
        <g id="Desktop_MyProfile" transform="translate(-1152.000000, -890.000000)">
            <g id="insta" transform="translate(1152.000000, 890.000000)">
                <rect id="Rectangle-87-Copy-3" fill="#B0BEC5" x="0" y="0" width="48" height="48" rx="4"></rect>
                <g id="Page-1" transform="translate(11.000000, 11.000000)">
                    <mask id="mask-2" fill="white">
                        <use xlink:href="#path-1"></use>
                    </mask>
                    <g id="Clip-2"></g>
                    <path d="M7.59814792,0.0783520833 C6.22177292,0.140914583 5.28198125,0.35920625 4.46000208,0.678789583 C3.60985625,1.00893542 2.88943958,1.45147708 2.17010625,2.16999792 C1.45158542,2.88851875 1.00877292,3.60893542 0.678627083,4.46016458 C0.35904375,5.28187292 0.141022917,6.22193542 0.0781895833,7.59803958 C0.01454375,8.97658125 -8.12500002e-05,9.41722708 -8.12500002e-05,12.9280396 C-8.12500002e-05,16.4388521 0.01454375,16.8797688 0.0781895833,18.2580396 C0.141022917,19.6344146 0.35904375,20.5742063 0.678627083,21.3959146 C1.00877292,22.2460604 1.45050208,22.9678313 2.17010625,23.6860813 C2.88835625,24.4046021 3.60904375,24.8463313 4.46000208,25.1772896 C5.28306458,25.4968729 6.22177292,25.7151646 7.59814792,25.7779979 C8.97777292,25.8405604 9.41733542,25.8562688 12.9281479,25.8562688 C16.4397729,25.8562688 16.8798771,25.8413729 18.2578771,25.7779979 C19.6342521,25.7151646 20.5743146,25.4968729 21.3960229,25.1772896 C22.2461687,24.8463313 22.9665854,24.4046021 23.6861896,23.6860813 C24.4047104,22.9678313 24.8464396,22.2460604 25.1773979,21.3959146 C25.4969812,20.5742063 25.7160854,19.6344146 25.7778354,18.2580396 C25.8403979,16.8786854 25.8550229,16.4388521 25.8550229,12.9280396 C25.8550229,9.41722708 25.8403979,8.97658125 25.7778354,7.59803958 C25.7152729,6.22193542 25.4969812,5.28187292 25.1773979,4.46016458 C24.8464396,3.61001875 24.4047104,2.88933125 23.6861896,2.16999792 C22.9676687,1.45147708 22.2461687,1.00893542 21.3971062,0.678789583 C20.5743146,0.35920625 19.6342521,0.140102083 18.2589604,0.0783520833 C16.8804187,0.0157895833 16.4397729,8.12500002e-05 12.9292312,8.12500002e-05 C9.41733542,8.12500002e-05 8.97777292,0.01470625 7.59814792,0.0783520833 M7.70485625,23.4512688 C6.44412708,23.3938521 5.75918958,23.1839563 5.30391875,23.0062896 C4.70023125,22.7714771 4.27014792,22.4914354 3.81677292,22.0394146 C3.36448125,21.5871229 3.08362708,21.1570396 2.84989792,20.5533521 C2.67250208,20.0980813 2.46233542,19.4131438 2.40491875,18.1524146 C2.34235625,16.7898521 2.32989792,16.3803521 2.32989792,12.9280396 C2.32989792,9.47572708 2.34343958,9.06731042 2.40491875,7.70366458 C2.46233542,6.44320625 2.67331458,5.75908125 2.84989792,5.30299792 C3.08471042,4.69931042 3.36448125,4.26895625 3.81677292,3.81585208 C4.26906458,3.36356042 4.69914792,3.08270625 5.30391875,2.84870625 C5.75918958,2.67131042 6.44412708,2.46141458 7.70485625,2.40399792 C9.06741875,2.34116458 9.47691875,2.32870625 12.9281479,2.32870625 C16.3804604,2.32870625 16.7888771,2.34224792 18.1527937,2.40399792 C19.4129812,2.46141458 20.0968354,2.67239375 20.5534604,2.84870625 C21.1568771,3.08270625 21.5872312,3.36356042 22.0403354,3.81585208 C22.4926271,4.26787292 22.7723979,4.69931042 23.0074812,5.30299792 C23.1848771,5.75799792 23.3947729,6.44320625 23.4521896,7.70366458 C23.5150229,9.06731042 23.5272104,9.47572708 23.5272104,12.9280396 C23.5272104,16.3792688 23.5150229,16.7887688 23.4521896,18.1524146 C23.3947729,19.4131438 23.1840646,20.0980813 23.0074812,20.5533521 C22.7723979,21.1570396 22.4926271,21.5871229 22.0403354,22.0394146 C21.5880437,22.4914354 21.1568771,22.7714771 20.5534604,23.0062896 C20.0979187,23.1839563 19.4129812,23.3938521 18.1527937,23.4512688 C16.7896896,23.5138313 16.3804604,23.5265604 12.9281479,23.5265604 C9.47691875,23.5265604 9.06741875,23.5138313 7.70485625,23.4512688 M18.2779188,6.02639375 C18.2779188,6.88276875 18.9723354,7.57826875 19.8297938,7.57826875 C20.6858979,7.57826875 21.3816688,6.88276875 21.3816688,6.02639375 C21.3816688,5.17028958 20.6869813,4.47560208 19.8297938,4.47560208 C18.9723354,4.47560208 18.2779188,5.17028958 18.2779188,6.02639375 M6.28975208,12.9280396 C6.28975208,16.5945813 9.26187708,19.5667063 12.9281479,19.5667063 C16.5946896,19.5667063 19.5665437,16.5945813 19.5665437,12.9280396 C19.5665437,9.26176875 16.5946896,6.28964375 12.9281479,6.28964375 C9.26187708,6.28964375 6.28975208,9.26176875 6.28975208,12.9280396 M8.61946042,12.9280396 C8.61946042,10.5482271 10.5483354,8.61826875 12.9281479,8.61826875 C15.3079604,8.61826875 17.2379188,10.5482271 17.2379188,12.9280396 C17.2379188,15.3078521 15.3079604,17.2378104 12.9281479,17.2378104 C10.5483354,17.2378104 8.61946042,15.3078521 8.61946042,12.9280396" id="Fill-1" fill="#FFFFFF" mask="url(#mask-2)"></path>
                </g>
            </g>
        </g>
    </g>
</svg>