<?xml version="1.0" encoding="utf-8"?>
<!-- Generator: Adobe Illustrator 19.1.1, SVG Export Plug-In . SVG Version: 6.00 Build 0)  -->
<svg version="1.1" id="Слой_1" xmlns="http://www.w3.org/2000/svg" xmlns:xlink="http://www.w3.org/1999/xlink" x="0px" y="0px"
	 viewBox="0 0 194.2 45.4" style="enable-background:new 0 0 194.2 45.4;" xml:space="preserve">
<style type="text/css">
	.st0{fill:#FFFFFF;}
	.st1{fill:#54BDBE;}
	.st2{clip-path:url(#SVGID_2_);fill:#54BDBE;}
	.st3{fill:none;stroke:#54BDBE;stroke-width:0.34;stroke-miterlimit:10;}
	.st4{clip-path:url(#SVGID_4_);fill:#54BDBE;}
</style>
<polygon class="st0" points="60.7,24.3 58.6,24.3 55.2,14.3 55,14.3 54.9,28.2 53.1,28.2 53.5,12.9 56.3,12.9 59.6,22.8 59.7,22.8 
	62.9,12.9 65.6,12.9 66.2,28.2 64.3,28.2 64.2,14.3 64.1,14.3 "/>
<polygon class="st0" points="74.9,28.2 74.9,22.5 70.4,12.9 72.5,12.9 75.8,21 75.9,21 79.2,12.9 81.3,12.9 76.7,22.6 76.8,28.2 "/>
<polygon class="st0" points="84.9,12.9 95.3,12.9 95.3,14.6 91,14.5 91,28.2 89.2,28.2 89.2,14.5 84.9,14.6 "/>
<polygon class="st0" points="99.8,28.2 99.8,12.9 107.3,12.9 107.3,14.6 101.7,14.5 101.6,19.7 106.8,19.7 106.8,21.2 101.6,21.2 
	101.7,26.6 107.3,26.6 107.3,28.2 "/>
<path class="st0" d="M119.1,22.6l-2-8.2h-0.1l-2,8.2H119.1z M113.5,28.2h-2l4.3-15.4h2.3l4.3,15.4h-2l-1.1-4.1h-4.9L113.5,28.2z"/>
<polygon class="st0" points="134.7,24.3 132.6,24.3 129.2,14.3 129.1,14.3 129,28.2 127.1,28.2 127.6,12.9 130.3,12.9 133.6,22.8 
	133.7,22.8 136.9,12.9 139.7,12.9 140.2,28.2 138.3,28.2 138.2,14.3 138.1,14.3 "/>
<rect x="145.7" y="26.3" class="st1" width="2.3" height="2"/>
<g>
	<defs>
		<rect id="SVGID_1_" width="194.2" height="45.4"/>
	</defs>
	<clipPath id="SVGID_2_">
		<use xlink:href="#SVGID_1_"  style="overflow:visible;"/>
	</clipPath>
	<path class="st2" d="M155.6,21.3c1,0.2,2,0.3,2.9,0.3c0.9,0,1.5-0.1,1.8-0.4c0.4-0.4,0.6-1.6,0.6-3.5c0-1.9-0.3-3-0.8-3.3
		c-0.3-0.2-1-0.4-2-0.4c-1,0-1.9,0.1-2.7,0.2V21.3z M155.6,28.2h-1.9l0.1-7.1l-0.1-8.2c1.8-0.2,3.4-0.3,4.9-0.3
		c2.9,0,4.3,1.7,4.3,5.1c0,3.6-1.5,5.4-4.6,5.4l-2.8-0.1V28.2z"/>
	<path class="st2" d="M169.9,20.4c1.4,0.1,2.5,0.2,3.5,0.2c0.9,0,1.6-0.2,2-0.7c0.4-0.5,0.6-1.3,0.6-2.5c0-1.7-0.3-2.7-0.9-3
		c-0.3-0.2-1-0.3-1.9-0.3s-2,0.1-3.2,0.2L169.9,20.4z M169.9,28.2h-1.9l0.1-7.3l-0.1-8.1c1.4-0.2,3.1-0.3,4.9-0.3
		c3.3,0,4.9,1.6,4.9,4.8c0,2.5-1.1,4-3.3,4.6V22l3.5,6.2h-2.2l-3.2-6.1l-2.8-0.1V28.2z"/>
	<path class="st2" d="M186.4,14.7c-0.5,0.3-0.9,0.9-1.1,1.8s-0.4,2.2-0.4,3.8s0.1,2.8,0.2,3.6c0.1,0.8,0.4,1.5,0.7,1.9
		c0.3,0.4,0.7,0.7,1.1,0.9c0.4,0.1,1,0.2,1.8,0.2c0.8,0,1.5-0.1,1.9-0.4c1-0.6,1.6-2.5,1.6-5.8c0-3.3-0.5-5.3-1.5-5.9
		c-0.5-0.3-1.2-0.4-2.1-0.4C187.6,14.3,186.9,14.4,186.4,14.7 M190.7,28.2c-0.6,0.2-1.4,0.4-2.2,0.4c-0.8,0-1.6-0.1-2.2-0.4
		c-0.6-0.2-1.2-0.6-1.8-1.2c-1.1-1.2-1.7-3.3-1.7-6.4c0-3.1,0.6-5.2,1.7-6.4c0.5-0.6,1.1-1,1.8-1.2c0.6-0.2,1.4-0.4,2.2-0.4
		c0.8,0,1.6,0.1,2.2,0.4c0.6,0.2,1.2,0.6,1.8,1.2c1.1,1.1,1.7,3.3,1.7,6.4c0,3.1-0.6,5.3-1.7,6.4C191.9,27.5,191.4,27.9,190.7,28.2"
		/>
</g>
<path class="st3" d="M20.3,3.2l0,19.5L3.4,12.9 M3.5,32.5l16.9-9.8l0,19.5 M20.5,42.2l0-19.5l16.9,9.8 M37.4,12.9l-16.9,9.8l0-19.5"
	/>
<g>
	<defs>
		<rect id="SVGID_3_" width="194.2" height="45.4"/>
	</defs>
	<clipPath id="SVGID_4_">
		<use xlink:href="#SVGID_3_"  style="overflow:visible;"/>
	</clipPath>
	<path class="st4" d="M23.6,3.2c0,1.7-1.4,3.2-3.2,3.2c-1.7,0-3.2-1.4-3.2-3.2S18.7,0,20.5,0C22.2,0,23.6,1.4,23.6,3.2"/>
	<path class="st4" d="M23.6,42.2c0,1.7-1.4,3.2-3.2,3.2c-1.7,0-3.2-1.4-3.2-3.2s1.4-3.2,3.2-3.2C22.2,39.1,23.6,40.5,23.6,42.2"/>
	<path class="st4" d="M40.5,32.2c0,1.7-1.4,3.2-3.2,3.2c-1.7,0-3.2-1.4-3.2-3.2c0-1.7,1.4-3.2,3.2-3.2
		C39.1,29.1,40.5,30.5,40.5,32.2"/>
	<path class="st4" d="M6.3,32.2c0,1.7-1.4,3.2-3.2,3.2C1.4,35.4,0,34,0,32.2c0-1.7,1.4-3.2,3.2-3.2C4.9,29.1,6.3,30.5,6.3,32.2"/>
	<path class="st4" d="M40.5,13.2c0,1.7-1.4,3.2-3.2,3.2c-1.7,0-3.2-1.4-3.2-3.2s1.4-3.2,3.2-3.2C39.1,10,40.5,11.4,40.5,13.2"/>
	<path class="st4" d="M6.3,13.2c0,1.7-1.4,3.2-3.2,3.2c-1.7,0-3.2-1.4-3.2-3.2S1.4,10,3.2,10C4.9,10,6.3,11.4,6.3,13.2"/>
	<path class="st4" d="M25.7,22.7c0,2.9-2.3,5.2-5.2,5.2c-2.9,0-5.2-2.3-5.2-5.2s2.3-5.2,5.2-5.2C23.4,17.5,25.7,19.8,25.7,22.7"/>
</g>
<polygon class="st3" points="3.3,12.3 20.5,2.4 37.6,12.3 37.6,32.2 20.5,42.2 3.3,32.2 "/>
</svg>
