<?xml version="1.0" encoding="UTF-8"?>
<svg width="48px" height="48px" viewBox="0 0 48 48" version="1.1" xmlns="http://www.w3.org/2000/svg" xmlns:xlink="http://www.w3.org/1999/xlink">
    <!-- Generator: Sketch 46.2 (44496) - http://www.bohemiancoding.com/sketch -->
    <title>ok</title>
    <desc>Created with Sketch.</desc>
    <defs></defs>
    <g id="main" stroke="none" stroke-width="1" fill="none" fill-rule="evenodd">
        <g id="Desktop_MyProfile" transform="translate(-1216.000000, -890.000000)">
            <g id="ok" transform="translate(1216.000000, 890.000000)">
                <rect id="Rectangle-87-Copy-4" fill="#B0BEC5" x="0" y="0" width="48" height="48" rx="4"></rect>
                <g transform="translate(17.500000, 13.000000)" fill="#FFFFFF">
                    <path d="M6.462612,8.07651587 C5.148572,8.07651587 4.07858533,7.0156554 4.07858533,5.71274478 C4.078412,4.40828696 5.14891867,3.3475984 6.462612,3.3475984 C7.777692,3.3475984 8.84715867,4.40845887 8.84715867,5.71274478 C8.84715867,7.0156554 7.77734533,8.07651587 6.462612,8.07651587 M6.462612,0.000154719562 C3.28679867,0.000154719562 0.703265333,2.56248258 0.703265333,5.71274478 C0.703265333,8.86145978 3.28679867,11.4224124 6.462612,11.4224124 C9.63894533,11.4224124 12.2219587,8.86145978 12.2219587,5.71274478 C12.2219587,2.56213876 9.63911867,0.000154719562 6.462612,0.000154719562" id="Fill-1"></path>
                    <path d="M8.792628,16.0815341 C9.97736133,15.8138693 11.1080147,15.3497106 12.136748,14.708312 C12.9254147,14.2161319 13.1625347,13.183121 12.6664547,12.4009276 C12.171068,11.6187343 11.1302013,11.382701 10.341708,11.8736777 C10.3410147,11.8741935 10.3403213,11.8745373 10.339628,11.8748811 C7.98021467,13.3460922 4.94341467,13.3450608 2.585908,11.8748811 C1.798108,11.382701 0.757414667,11.6171871 0.261161333,12.3985209 C0.260468,12.3993804 0.259948,12.4000681 0.259601333,12.4009276 C-0.236825333,13.1829491 -5.20000004e-05,14.2157881 0.788268,14.708312 C1.81700133,15.3493668 2.947308,15.8136974 4.131868,16.0815341 L0.912374667,19.2752897 C0.253361333,19.9288939 0.253708,20.988551 0.912721333,21.6419833 C1.571908,22.2954155 2.64033467,22.2952436 3.29917467,21.6414675 L6.46216133,18.5039267 L9.62705467,21.6418114 C10.284508,22.2948998 11.3513747,22.2955875 12.009868,21.6435305 C12.010388,21.6430147 12.010908,21.6423271 12.0116013,21.6418114 C12.6704413,20.990442 12.6720013,19.9326759 12.0152413,19.2794155 C12.014028,19.2782122 12.0128147,19.2770088 12.0116013,19.2758054 L8.792628,16.0815341" id="Fill-3"></path>
                </g>
            </g>
        </g>
    </g>
</svg>