<?xml version="1.0" encoding="UTF-8"?>
<svg width="23px" height="24px" viewBox="0 0 23 24" version="1.1" xmlns="http://www.w3.org/2000/svg" xmlns:xlink="http://www.w3.org/1999/xlink">
    <!-- Generator: Sketch 45.1 (43504) - http://www.bohemiancoding.com/sketch -->
    <title>viber</title>
    <desc>Created with Sketch.</desc>
    <defs></defs>
    <g id="main" stroke="none" stroke-width="1" fill="none" fill-rule="evenodd">
        <g id="Desktop_MyProfile" transform="translate(-1236.000000, -405.000000)" fill="#B0BEC5">
            <g id="viber" transform="translate(1236.000000, 405.000000)">
                <path d="M21.2638255,16.9547147 C20.5776679,16.4077357 19.8449648,15.9161081 19.1238982,15.4144865 C17.6840921,14.4131652 16.3687952,14.3351351 15.2951467,15.9464745 C14.6919952,16.8509309 13.8487467,16.8905225 12.9651588,16.4938378 C10.5327709,15.4006486 8.65427394,13.7162763 7.55308606,11.2654414 C7.06707394,10.1814775 7.07289212,9.20936937 8.21209212,8.44252252 C8.81485576,8.036997 9.42266182,7.55728529 9.37417697,6.67089489 C9.31095273,5.51543544 6.47982545,1.65429429 5.36157091,1.24684685 C4.89921939,1.0781021 4.43841939,1.08924925 3.96792242,1.24607808 C1.3462497,2.1193994 0.260964848,4.25580781 1.30086788,6.78544144 C4.40234667,14.3324444 9.86174061,19.5862102 17.3761164,22.7935135 C17.8051103,22.9757117 18.2810376,23.0487447 18.5219103,23.1140901 C20.2328436,23.1313874 22.2370133,21.4973694 22.8157285,19.8764204 C23.3727224,18.3165886 22.1951224,17.6981141 21.2638255,16.9547147" id="Fill-4"></path>
                <path d="M12.8373139,1.72382943 C18.3312291,2.56101862 20.8648533,5.15023183 21.5645867,10.6334751 C21.6293624,11.1400937 21.4389139,11.9019435 22.1681261,11.9161658 C22.9303079,11.930388 22.7464533,11.1796853 22.7526594,10.6726823 C22.8170473,5.50809369 18.2734352,0.720586186 12.9959564,0.544153754 C12.5983806,0.601042643 11.7745261,0.27200961 11.7229382,1.15609369 C11.688417,1.75265826 12.38272,1.65464024 12.8373139,1.72382943" id="Fill-6"></path>
                <path d="M13.9119321,3.22742583 C13.3836412,3.16438679 12.6862352,2.91761201 12.5625018,3.6440985 C12.4337261,4.4071015 13.2106473,4.32945586 13.710623,4.44015856 C17.1037867,5.19163003 18.2852655,6.41550991 18.8438109,9.7511976 C18.9256533,10.2374438 18.7639079,10.9942967 19.5974594,10.868603 C20.2149624,10.7751976 19.99232,10.1267411 20.0439079,9.74773814 C20.0714473,6.54543183 17.3023806,3.63102943 13.9119321,3.22742583" id="Fill-8"></path>
                <path d="M14.2240582,5.84604444 C13.8707006,5.8545009 13.5247127,5.89255495 13.3951612,6.26617658 C13.2004461,6.8243027 13.6100461,6.95768408 14.0266279,7.0237982 C15.4187248,7.24558799 16.15104,8.05856096 16.2906764,9.43388829 C16.3283006,9.80750991 16.5672339,10.109636 16.9310642,10.0673538 C17.4353067,10.0077742 17.4806885,9.56304144 17.4655612,9.14021862 C17.4903855,7.59499339 15.7282521,5.80914354 14.2240582,5.84604444" id="Fill-10"></path>
            </g>
        </g>
    </g>
</svg>