<?xml version="1.0" encoding="UTF-8"?>
<svg width="48px" height="48px" viewBox="0 0 48 48" version="1.1" xmlns="http://www.w3.org/2000/svg" xmlns:xlink="http://www.w3.org/1999/xlink">
    <!-- Generator: Sketch 46.2 (44496) - http://www.bohemiancoding.com/sketch -->
    <title>vk</title>
    <desc>Created with Sketch.</desc>
    <defs></defs>
    <g id="main" stroke="none" stroke-width="1" fill="none" fill-rule="evenodd">
        <g id="Desktop_MyProfile" transform="translate(-1024.000000, -890.000000)">
            <g id="vk" transform="translate(1024.000000, 890.000000)">
                <rect id="Rectangle-87-Copy" fill="#B0BEC5" x="0" y="0" width="48" height="48" rx="4"></rect>
                <path d="M22.7425669,30.8587708 L24.1771355,30.8587708 C24.1771355,30.8587708 24.6101452,30.8136008 24.8317002,30.58898 C25.0353353,30.3824886 25.028819,29.9947028 25.028819,29.9947028 C25.028819,29.9947028 25.0007988,28.1792997 25.8941867,27.9119671 C26.7748678,27.6486292 27.9057757,29.666529 29.1044533,30.442408 C30.0105481,31.0293105 30.6996493,30.900868 30.6996493,30.900868 L33.9047029,30.8587708 C33.9047029,30.8587708 35.581027,30.7610561 34.7860356,29.5181134 C34.7211982,29.4164041 34.3230508,28.5984279 32.4030162,26.9176129 C30.3930563,25.1584418 30.6625062,25.442982 33.0833203,22.4 C34.5576385,20.5468016 35.1470399,19.4154011 34.9629538,18.9308224 C34.7873389,18.4692897 33.7030227,18.5912793 33.7030227,18.5912793 L30.0942829,18.6121743 C30.0942829,18.6121743 29.826462,18.5777591 29.6283657,18.6899158 C29.4341793,18.7993071 29.3097175,19.054963 29.3097175,19.054963 C29.3097175,19.054963 28.7385618,20.4887259 27.9771294,21.7086227 C26.3702041,24.2817754 25.7273688,24.4182072 25.464761,24.2581149 C24.8535299,23.885693 25.0063376,22.7619745 25.0063376,21.9636641 C25.0063376,19.4697894 25.4074173,18.429958 24.2253563,18.1607817 C23.8330736,18.0713636 23.5440747,18.0123661 22.5408867,18.0028404 C21.2532613,17.9905493 20.163732,18.0065278 19.5466362,18.2916825 C19.135782,18.4812735 18.8190887,18.9037819 19.0122977,18.9280569 C19.2507951,18.9578629 19.7909983,19.0654105 20.0770649,19.432916 C20.4471921,19.9076617 20.4341594,20.9729973 20.4341594,20.9729973 C20.4341594,20.9729973 20.6465916,23.9087389 19.9379414,24.2734789 C19.4514979,24.5236038 18.7842264,24.0129064 17.3516127,21.6782021 C16.6175489,20.4822731 16.0633356,19.1603597 16.0633356,19.1603597 C16.0633356,19.1603597 15.9564679,18.9133075 15.7658654,18.7808704 C15.534536,18.6207781 15.2116522,18.5700771 15.2116522,18.5700771 L11.7821112,18.5912793 C11.7821112,18.5912793 11.2676475,18.6047996 11.0783483,18.8159001 C10.9102272,19.0036475 11.0649898,19.3920479 11.0649898,19.3920479 C11.0649898,19.3920479 13.749715,25.3157685 16.7895798,28.3009821 C19.5775887,31.0385289 22.7425669,30.8587708 22.7425669,30.8587708" id="Fill-4" fill="#FFFFFF"></path>
            </g>
        </g>
    </g>
</svg>