<?xml version="1.0" encoding="UTF-8"?>
<svg width="24px" height="24px" viewBox="0 0 24 24" version="1.1" xmlns="http://www.w3.org/2000/svg" xmlns:xlink="http://www.w3.org/1999/xlink">
    <!-- Generator: Sketch 45.1 (43504) - http://www.bohemiancoding.com/sketch -->
    <title>wtsup</title>
    <desc>Created with Sketch.</desc>
    <defs></defs>
    <g id="main" stroke="none" stroke-width="1" fill="none" fill-rule="evenodd">
        <g id="Desktop_MyProfile" transform="translate(-1195.000000, -405.000000)" fill="#B0BEC5">
            <g id="wtsup" transform="translate(1195.000000, 405.000000)">
                <path d="M12.3002977,0.0839697297 C6.05311224,0.0839697297 0.988123152,5.10332829 0.988123152,11.2949823 C0.988123152,13.4132094 1.58149042,15.3938941 2.6116577,17.0841283 L0.569475879,23.0985139 L6.83254497,21.1118328 C8.45381042,21.9996742 10.3174904,22.5063697 12.3002977,22.5063697 C18.5493741,22.5063697 23.6143632,17.4866364 23.6143632,11.2949823 C23.6143632,5.10332829 18.5493741,0.0839697297 12.3002977,0.0839697297 M12.3002977,20.6279986 C10.3885886,20.6279986 8.60659588,20.0594652 7.11996315,19.0843013 L3.50038497,20.2326112 L4.67690861,16.7666941 C3.54954861,15.2282436 2.88394861,13.3378796 2.88394861,11.2949823 C2.88394861,6.14820036 7.10823952,1.96159135 12.3002977,1.96159135 C17.4938686,1.96159135 21.7185377,6.14820036 21.7185377,11.2949823 C21.7185377,16.4410148 17.4938686,20.6279986 12.3002977,20.6279986 M17.6050541,13.8423265 C17.3217959,13.6882941 15.9285741,12.9436166 15.6676286,12.8383049 C15.4066832,12.7329932 15.2153232,12.678276 15.0114832,12.957858 C14.8091559,13.2359409 14.2305377,13.8603157 14.0558177,14.0450796 C13.879585,14.2302184 13.7105377,14.247458 13.426145,14.0930508 C13.1440213,13.9393932 12.2242832,13.6024706 11.1581886,12.5864562 C10.3284577,11.796431 9.78463224,10.8381319 9.62693042,10.5454328 C9.46847224,10.2527337 9.62579588,10.1035733 9.77555588,9.96640577 C9.91056679,9.84235532 10.077345,9.64222559 10.2282395,9.48069766 C10.3779995,9.3195445 10.430945,9.20186523 10.5341886,9.01447784 C10.6378104,8.82746523 10.5962104,8.6584418 10.5288941,8.51265441 C10.4623341,8.36686703 9.93817406,6.93710126 9.71958497,6.35507604 C9.50023952,5.77380036 9.25631224,5.85999856 9.08802133,5.85362739 C8.91935224,5.84763099 8.72799224,5.81652468 8.5354977,5.80902919 C8.34224679,5.80228324 8.02684315,5.86224721 7.75228315,6.13845622 C7.47621042,6.41504 6.70358497,7.07951568 6.65063952,8.48791928 C6.59731588,9.89594811 7.58058861,11.2949823 7.71786861,11.4906148 C7.85514861,11.6873715 9.59516315,14.7395373 12.4863632,15.9942832 C15.3794541,17.2497787 15.3949595,16.8671337 15.9251704,16.8390256 C16.4565159,16.8109175 17.6598904,16.209404 17.9261304,15.5509247 C18.1923704,14.8916959 18.2135486,14.3186652 18.1462322,14.1968634 C18.0781595,14.0750616 17.8883122,13.9959841 17.6050541,13.8423265" id="Fill-4"></path>
            </g>
        </g>
    </g>
</svg>